<svg width="20" height="20" viewBox="0 0 20 20" fill="none" xmlns="http://www.w3.org/2000/svg">
<path d="M0 1.81818C0 0.814028 0.814028 0 1.81818 0H7.27273C8.27688 0 9.09091 0.814028 9.09091 1.81818V7.27273C9.09091 8.27688 8.27688 9.09091 7.27273 9.09091H1.81818C0.814028 9.09091 0 8.27688 0 7.27273V1.81818Z" fill="#005ED2"/>
<path d="M10.9091 1.81818C10.9091 0.814028 11.7231 0 12.7273 0H18.1818C19.186 0 20 0.814028 20 1.81818V7.27273C20 8.27688 19.186 9.09091 18.1818 9.09091H12.7273C11.7231 9.09091 10.9091 8.27688 10.9091 7.27273V1.81818Z" fill="#005ED2"/>
<path d="M0 12.7273C0 11.7231 0.814028 10.9091 1.81818 10.9091H7.27273C8.27688 10.9091 9.09091 11.7231 9.09091 12.7273V18.1818C9.09091 19.186 8.27688 20 7.27273 20H1.81818C0.814028 20 0 19.186 0 18.1818V12.7273Z" fill="#005ED2"/>
<path d="M10.9091 12.7273C10.9091 11.7231 11.7231 10.9091 12.7273 10.9091H18.1818C19.186 10.9091 20 11.7231 20 12.7273V18.1818C20 19.186 19.186 20 18.1818 20H12.7273C11.7231 20 10.9091 19.186 10.9091 18.1818V12.7273Z" fill="#005ED2"/>
</svg>
