<svg width="24" height="24" viewBox="0 0 24 24" fill="none" xmlns="http://www.w3.org/2000/svg">
<path d="M2.97772 8.17305L3.05593 8.6669L2.97772 8.17305ZM8.17305 2.97772L8.6669 3.05593L8.17305 2.97772ZM20.6737 22.0564L20.3798 21.6518L20.6737 22.0564ZM22.0564 20.6737L21.6518 20.3798L22.0564 20.6737ZM1.94364 20.6737L2.34815 20.3798L1.94364 20.6737ZM3.32634 22.0564L3.62024 21.6518L3.32634 22.0564ZM3.32634 1.94364L3.03245 1.53914L3.32634 1.94364ZM1.94364 3.32634L1.53913 3.03245L1.94364 3.32634ZM20.6737 1.94364L20.3798 2.34815L20.6737 1.94364ZM22.0564 3.32634L21.6518 3.62023L22.0564 3.32634ZM8.25 0.786161L8.23288 0.286454L8.25 0.786161ZM0.786161 8.25L0.286454 8.23288L0.786161 8.25ZM13.25 16.5C12.9739 16.5 12.75 16.7239 12.75 17C12.75 17.2761 12.9739 17.5 13.25 17.5V16.5ZM17 17.5C17.2761 17.5 17.5 17.2761 17.5 17C17.5 16.7239 17.2761 16.5 17 16.5V17.5ZM7 11.5C6.72386 11.5 6.5 11.7239 6.5 12C6.5 12.2761 6.72386 12.5 7 12.5V11.5ZM17 12.5C17.2761 12.5 17.5 12.2761 17.5 12C17.5 11.7239 17.2761 11.5 17 11.5V12.5ZM13.25 6.5C12.9739 6.5 12.75 6.72386 12.75 7C12.75 7.27614 12.9739 7.5 13.25 7.5V6.5ZM17 7.5C17.2761 7.5 17.5 7.27614 17.5 7C17.5 6.72386 17.2761 6.5 17 6.5V7.5ZM3.05593 8.6669C5.94421 8.20944 8.20944 5.94421 8.6669 3.05593L7.67921 2.8995C7.28952 5.35988 5.35988 7.28952 2.8995 7.67921L3.05593 8.6669ZM12 23.75C14.3324 23.75 16.1219 23.7507 17.5323 23.5979C18.952 23.4441 20.0467 23.1299 20.9676 22.4609L20.3798 21.6518C19.6578 22.1764 18.7592 22.4591 17.4246 22.6037C16.0806 22.7493 14.3547 22.75 12 22.75V23.75ZM22.75 12C22.75 14.3547 22.7493 16.0806 22.6037 17.4246C22.4591 18.7592 22.1764 19.6577 21.6518 20.3798L22.4609 20.9676C23.1299 20.0467 23.4441 18.952 23.5979 17.5323C23.7507 16.1219 23.75 14.3324 23.75 12H22.75ZM20.9676 22.4609C21.5406 22.0445 22.0445 21.5406 22.4609 20.9676L21.6518 20.3798C21.2972 20.8679 20.8679 21.2972 20.3798 21.6518L20.9676 22.4609ZM0.25 12C0.25 14.3324 0.249313 16.1219 0.402114 17.5323C0.555928 18.952 0.870065 20.0467 1.53913 20.9676L2.34815 20.3798C1.82358 19.6577 1.54089 18.7592 1.3963 17.4246C1.25069 16.0806 1.25 14.3547 1.25 12H0.25ZM12 22.75C9.64528 22.75 7.9194 22.7493 6.57543 22.6037C5.24082 22.4591 4.34225 22.1764 3.62024 21.6518L3.03245 22.4609C3.95334 23.1299 5.04802 23.4441 6.46772 23.5979C7.87806 23.7507 9.66755 23.75 12 23.75V22.75ZM1.53913 20.9676C1.95547 21.5406 2.45941 22.0445 3.03245 22.4609L3.62024 21.6518C3.13209 21.2972 2.70281 20.8679 2.34815 20.3798L1.53913 20.9676ZM3.03245 1.53914C2.45941 1.95547 1.95547 2.45941 1.53913 3.03245L2.34815 3.62023C2.70281 3.13209 3.13209 2.70281 3.62024 2.34815L3.03245 1.53914ZM12 1.25C14.3547 1.25 16.0806 1.25069 17.4246 1.3963C18.7592 1.54089 19.6578 1.82358 20.3798 2.34815L20.9676 1.53914C20.0467 0.870066 18.952 0.555929 17.5323 0.402114C16.1219 0.249314 14.3324 0.25 12 0.25V1.25ZM23.75 12C23.75 9.66755 23.7507 7.87806 23.5979 6.46772C23.4441 5.04802 23.1299 3.95334 22.4609 3.03245L21.6518 3.62023C22.1764 4.34225 22.4591 5.24082 22.6037 6.57543C22.7493 7.9194 22.75 9.64528 22.75 12H23.75ZM20.3798 2.34815C20.8679 2.70281 21.2972 3.13209 21.6518 3.62023L22.4609 3.03245C22.0445 2.45941 21.5406 1.95547 20.9676 1.53914L20.3798 2.34815ZM12 0.25C10.5416 0.25 9.2987 0.249937 8.23288 0.286454L8.26712 1.28587C9.31217 1.25006 10.5361 1.25 12 1.25V0.25ZM8.23288 0.286454C5.89647 0.366502 4.29591 0.621178 3.03245 1.53914L3.62024 2.34815C4.61829 1.62303 5.94306 1.36549 8.26712 1.28587L8.23288 0.286454ZM7.75 0.786157C7.74999 1.94169 7.74767 2.46723 7.67921 2.8995L8.6669 3.05593C8.75072 2.52668 8.74999 1.90504 8.75 0.786164L7.75 0.786157ZM1.25 12C1.25 10.5361 1.25006 9.31217 1.28587 8.26712L0.286454 8.23288C0.249938 9.2987 0.25 10.5416 0.25 12H1.25ZM1.28587 8.26712C1.36549 5.94306 1.62302 4.61829 2.34815 3.62023L1.53913 3.03245C0.621177 4.29591 0.366502 5.89647 0.286454 8.23288L1.28587 8.26712ZM0.786165 8.75C1.90504 8.74999 2.52668 8.75072 3.05593 8.6669L2.8995 7.67921C2.46723 7.74767 1.94169 7.74999 0.786157 7.75L0.786165 8.75ZM13.25 17.5H17V16.5H13.25V17.5ZM7 12.5H17V11.5H7V12.5ZM13.25 7.5H17V6.5H13.25V7.5Z" fill="black"/>
</svg>
